<?xml version="1.0" encoding="utf-8" ?>	<!-- Generator: Assembly 1.8 - http://assemblyapp.co -->	<svg version="1.1" xmlns="http://www.w3.org/2000/svg" xmlns:xlink="http://www.w3.org/1999/xlink" width="2048.00" height="1638.40" viewBox="0 0 2048.0 1638.4">		<rect x="0" y="0" width="2048.00" height="1638.40" fill="#ebebeb" />		<g id="document" transform="matrix(1,0,0,1,1024.0,819.2)">			<g>				<path d="M347.604,-9.03888e-06 C347.604,191.976 191.976,347.604 -9.03888e-06,347.604 C-191.976,347.604 -347.604,191.976 -347.604,-9.03888e-06 C-347.604,-191.976 -191.976,-347.604 -9.03888e-06,-347.604 C191.976,-347.604 347.604,-191.976 347.604,-9.03888e-06 Z " fill="#dbd6d1" fill-opacity="1.00" />				<path d="M255.194,-3.55424 C255.194,137.385 140.94,251.64 -9.03888e-06,251.64 C-140.94,251.64 -255.194,137.385 -255.194,-3.55424 C-255.194,-144.494 -140.94,-258.748 -9.03888e-06,-258.748 C140.94,-258.748 255.194,-144.494 255.194,-3.55424 Z " fill="#eae6e2" fill-opacity="1.00" />			</g>			<path d="M440.506,56.1574 L443.546,143.049 C448.981,166.836 454.474,191.12 458.768,210.632 C459.429,214.393 459.871,218.404 459.871,222.666 C459.871,246.983 442.661,266.036 421.479,266.036 C400.077,266.036 383.308,246.482 383.308,222.666 C383.308,218.153 384.852,210.632 384.852,210.632 L399.976,144.06 L402.887,60.8437 C368.258,0.0561567 379.565,-153.817 436.808,-153.817 C462.889,-153.817 448.148,-7.47475 440.506,56.1574 L440.506,56.1574 Z " fill="#c0c0c0" fill-opacity="1.00" />			<path d="M-492.537,49.0087 L-495.725,140.146 C-501.288,164.494 -506.911,189.351 -511.306,209.324 C-511.983,213.174 -512.435,217.279 -512.435,221.642 C-512.435,246.533 -494.819,266.036 -473.137,266.036 C-451.229,266.036 -434.064,246.02 -434.064,221.642 C-434.064,217.023 -435.645,209.324 -435.645,209.324 L-451.126,141.181 L-454.345,49.1679 C-424.856,41.5749 -402.348,16.5345 -398.499,-14.2764 C-398.119,-15.5935 -397.915,-16.9833 -397.915,-18.4183 L-397.915,-138.772 C-397.915,-147.047 -404.685,-153.817 -412.96,-153.817 C-421.234,-153.817 -428.004,-147.047 -428.004,-138.772 L-428.004,-98.9051 L-428.004,-23.6838 C-428.004,1.28963 -448.163,21.4489 -473.137,21.4489 C-498.109,21.4489 -518.267,1.29182 -518.27,-23.6798 L-518.27,-138.772 C-518.27,-147.047 -525.039,-153.817 -533.314,-153.817 C-541.588,-153.817 -548.358,-147.047 -548.358,-138.772 L-548.358,-98.9051 L-548.358,-23.6838 C-548.358,-23.6821 -548.358,-23.6803 -548.358,-23.6786 L-548.358,-18.4183 C-548.358,-16.9833 -548.154,-15.5935 -547.775,-14.2764 C-543.952,16.3225 -521.726,41.23 -492.537,49.0087 L-492.537,49.0087 Z M-458.092,-18.4183 L-458.093,-138.772 C-458.093,-147.047 -464.862,-153.817 -473.137,-153.817 C-481.411,-153.817 -488.181,-147.047 -488.181,-138.772 L-488.181,-18.4183 C-488.181,-10.144 -481.411,-3.37409 -473.137,-3.37409 C-464.862,-3.37409 -458.092,-10.144 -458.092,-18.4183 Z " fill="#c0c0c0" fill-opacity="1.00" />		</g>	</svg>