<svg xmlns="http://www.w3.org/2000/svg" width="512pt" height="512pt" viewBox="0 0 512 512"><g id="surface1"><path d="M44.48 274.813c20.125 25.808 36.75 46.37 91.872 101.054 52.496 52.496 73.933 70.871 101.054 91.871 3.5 2.625 7.438 4.813 11.375 5.688 2.188.875 4.813.875 7 1.312h3.5c1.313 0 2.625-.437 3.938-.875 4.375-1.312 8.312-3.062 11.812-6.125 25.809-20.125 46.371-36.75 101.055-91.87 52.496-52.497 70.871-73.934 91.871-101.055 2.625-3.5 4.813-7.438 5.688-11.375.875-2.188.875-4.375.875-6.563v-1.75c0-2.188-.438-4.375-.875-6.563-1.313-3.937-3.063-7.875-5.688-11.375-20.562-27.12-39.375-48.558-91.871-101.054-54.684-55.121-75.246-72.184-101.055-91.871-3.5-2.625-7.875-4.813-11.812-6.125-1.313-.438-2.625-.438-3.938-.875h-3.5c-2.187 0-4.812.437-7 1.312-3.937 1.313-7.875 3.063-11.375 5.688-27.12 20.562-48.558 39.375-101.054 91.87C81.23 191.255 64.605 211.38 44.48 237.188c-2.625 3.5-4.812 7.875-6.125 11.813-.437 2.188-.875 4.375-.875 6.125v1.75c0 2.188.438 4.375.875 6.125 1.313 4.375 3.5 8.313 6.125 11.813zm0 0" fill="#767675"/><path d="M50.168 274.375c19.25 24.934 35.875 45.059 89.246 98.43 51.184 51.183 72.184 69.12 98.43 89.246 3.5 2.625 7.437 4.375 10.937 5.687 2.188.875 4.375.875 7 .875h3.5c1.313 0 2.625-.437 3.938-.875 3.937-.875 7.875-3.062 11.375-5.687 24.933-19.25 45.058-35.875 98.43-89.246 51.183-51.184 69.12-72.184 89.246-98.43 2.625-3.5 4.812-7.438 5.687-11.375.438-2.188.875-4.375.875-6.563v-1.75c0-2.187-.437-4.375-.875-6.562-1.312-3.938-3.062-7.875-5.687-11.375-20.125-26.246-38.063-47.246-89.247-98.43-53.37-52.496-73.496-68.683-98.43-88.37-3.5-2.626-7.437-4.813-11.374-5.688-1.313-.438-2.625-.438-3.938-.875h-3.5c-2.187 0-4.812.437-7 .875-3.937 1.312-7.875 3.062-10.937 5.687-26.246 20.125-47.246 38.063-98.43 89.246-53.371 53.371-69.996 73.496-89.246 98.43-2.625 3.5-4.813 7.438-5.688 11.375-.437 2.188-.875 3.938-.875 6.125v1.75c0 2.188.438 3.938.875 6.125 1.313 3.938 3.063 7.875 5.688 11.375zm0 0" fill="#2f2f2f"/><path d="M132.414 266.938c11.813 14.875 21.438 27.12 53.809 59.058 30.625 30.621 43.308 41.559 59.058 53.809 2.188 1.75 4.375 2.625 6.563 3.5 1.312.437 2.625.437 3.937.437h1.75c.875 0 1.75-.437 2.625-.437 2.625-.438 4.813-1.75 7-3.5 14.875-11.813 27.121-21.438 59.059-53.809 30.62-30.625 41.558-43.308 53.808-59.058 1.75-2.188 2.625-4.375 3.5-6.563.438-1.313.438-2.625.438-3.938v-.875c0-1.312-.438-2.625-.438-3.937-.875-2.188-1.75-4.813-3.5-6.563-12.25-15.75-22.75-28.433-53.808-59.058-31.938-31.934-44.184-41.996-59.059-53.809-2.187-1.75-4.375-2.625-7-3.5-.875-.437-1.75-.437-2.625-.437h-1.75c-1.312 0-2.625.437-3.937.437-2.188.875-4.813 1.75-6.563 3.5-15.75 12.25-28.433 22.75-59.058 53.809-31.934 31.937-41.996 44.184-53.809 59.059-1.75 2.187-2.625 4.375-3.5 7-.437 1.312-.437 2.625-.437 3.5v.875c0 1.312.437 2.625.437 3.5.438 2.625 1.75 5.25 3.5 7zm0 0" fill="#1d1d18"/><path d="M244.57 386.8c-7-4.37-73.933-66.054-102.808-101.054-20.996-25.375-25.809-27.125-37.184-27.562-31.062-.434-59.058-5.247-53.371 5.687 5.688 10.063 61.684 72.184 95.367 105.871 33.688 33.684 89.246 83.117 99.746 89.68 10.5 6.562 8.313-5.688 8.313-13.996-1.313-22.75-2.188-53.375-10.063-58.625zm0 0" fill="#595959"/><path d="M387.316 243.64c-4.375-6.562-66.058-73.933-101.054-102.808-25.375-20.996-27.125-25.809-27.563-37.184-.437-31.058-4.812-59.058 5.688-52.933 10.062 5.687 72.183 61.683 105.87 95.367 33.684 33.688 83.118 89.246 89.68 99.746 6.563 10.5-5.687 8.313-14 8.313-22.746-1.313-53.37-2.625-58.62-10.5zm0 0" fill="#0c0c06"/></g></svg>