<svg xmlns="http://www.w3.org/2000/svg" width="2048" height="1638.4"><path fill="#ebebeb" d="M0 0h2048v1638.4H0z"/><g id="document"><path d="M347.604 0c0 191.976-155.628 347.604-347.604 347.604S-347.604 191.976-347.604 0-191.976-347.604 0-347.604 347.604-191.976 347.604 0z" fill="#dbd6d1" transform="translate(1024 819.2)"/><path d="M255.194-3.554C255.194 137.385 140.94 251.64 0 251.64S-255.194 137.385-255.194-3.554c0-140.94 114.254-255.194 255.194-255.194S255.194-144.494 255.194-3.554z" fill="#eae6e2" transform="translate(1024 819.2)"/><path d="M440.506 56.157l3.04 86.892c5.435 23.787 10.928 48.071 15.222 67.583.661 3.761 1.103 7.772 1.103 12.034 0 24.317-17.21 43.37-38.392 43.37-21.402 0-38.171-19.554-38.171-43.37 0-4.513 1.544-12.034 1.544-12.034l15.124-66.572 2.911-83.216C368.258.056 379.565-153.817 436.808-153.817c26.081 0 11.34 146.342 3.698 209.974zm-933.043-7.148l-3.188 91.137c-5.563 24.348-11.186 49.205-15.581 69.178-.677 3.85-1.129 7.955-1.129 12.318 0 24.891 17.616 44.394 39.298 44.394 21.908 0 39.073-20.016 39.073-44.394 0-4.619-1.581-12.318-1.581-12.318l-15.481-68.143-3.219-92.013c29.489-7.593 51.997-32.633 55.846-63.444.38-1.318.584-2.707.584-4.142v-120.354c0-8.275-6.77-15.045-15.045-15.045-8.274 0-15.044 6.77-15.044 15.045v115.088c0 24.974-20.159 45.133-45.133 45.133-24.972 0-45.13-20.157-45.133-45.129v-115.092c0-8.275-6.769-15.045-15.044-15.045-8.274 0-15.044 6.77-15.044 15.045v120.353c0 1.436.204 2.825.583 4.143 3.823 30.599 26.049 55.506 55.238 63.285zm34.445-67.427l-.001-120.354c0-8.275-6.769-15.045-15.044-15.045-8.274 0-15.044 6.77-15.044 15.045v120.354c0 8.274 6.77 15.044 15.044 15.044 8.275 0 15.045-6.77 15.045-15.044z" fill="silver" transform="translate(1024 819.2)"/></g></svg>