<svg xmlns="http://www.w3.org/2000/svg" width="511pt" height="409pt" viewBox="0 0 511 409"><g id="surface1"><path fill="#ebebeb" d="M0 0h511v409H0z"/><path d="M342.23 204.55c0 47.934-38.832 86.794-86.73 86.794s-86.73-38.86-86.73-86.793c0-47.938 38.832-86.797 86.73-86.797s86.73 38.86 86.73 86.797zm0 0" fill="#dbd6d1"/><path d="M319.176 203.664c0 35.191-28.508 63.719-63.676 63.719-35.168 0-63.676-28.528-63.676-63.719 0-35.195 28.508-63.723 63.676-63.723 35.168 0 63.676 28.528 63.676 63.723zm0 0" fill="#eae6e2"/><path d="M365.41 218.57l.762 21.7a2255.58 2255.58 0 0 1 3.797 16.875c.164.937.273 1.94.273 3.003 0 6.07-4.293 10.829-9.578 10.829-5.34 0-9.523-4.883-9.523-10.829 0-1.125.382-3.003.382-3.003l3.774-16.625.726-20.778c-8.64-15.18-5.816-53.597 8.465-53.597 6.508 0 2.828 36.539.922 52.425zm-232.805-1.78l-.792 22.753a2292.696 2292.696 0 0 0-3.891 17.273 17.818 17.818 0 0 0-.281 3.079c0 6.214 4.394 11.082 9.804 11.082 5.47 0 9.75-4.997 9.75-11.082 0-1.157-.394-3.079-.394-3.079l-3.863-17.015-.801-22.973c7.355-1.898 12.972-8.148 13.933-15.844a3.75 3.75 0 0 0 .145-1.035V169.9a3.763 3.763 0 0 0-3.754-3.754 3.765 3.765 0 0 0-3.754 3.753v28.739a11.25 11.25 0 0 1-11.262 11.27c-6.23 0-11.257-5.036-11.257-11.27v-28.739a3.765 3.765 0 0 0-3.754-3.753 3.763 3.763 0 0 0-3.754 3.753v30.051c0 .36.05.707.144 1.035.953 7.641 6.5 13.86 13.781 15.805zm8.594-16.84v-30.052a3.763 3.763 0 0 0-3.754-3.753 3.765 3.765 0 0 0-3.754 3.753v30.051a3.769 3.769 0 0 0 3.754 3.758 3.766 3.766 0 0 0 3.754-3.758zm0 0" fill="silver"/></g></svg>