<?xml version="1.0" encoding="UTF-8"?>
<svg xmlns="http://www.w3.org/2000/svg" xmlns:xlink="http://www.w3.org/1999/xlink" width="512pt" height="512pt" viewBox="0 0 512 512" version="1.1">
<g id="surface1">
<path style=" stroke:none;fill-rule:nonzero;fill:rgb(46.27451%,46.27451%,45.882353%);fill-opacity:1;" d="M 44.480469 274.8125 C 64.605469 300.621094 81.230469 321.183594 136.351562 375.867188 C 188.847656 428.363281 210.285156 446.738281 237.40625 467.738281 C 240.90625 470.363281 244.84375 472.550781 248.78125 473.425781 C 250.96875 474.300781 253.59375 474.300781 255.78125 474.738281 C 256.21875 474.738281 256.65625 474.738281 257.53125 474.738281 C 257.96875 474.738281 258.40625 474.738281 259.28125 474.738281 C 260.59375 474.738281 261.90625 474.300781 263.21875 473.863281 C 267.59375 472.550781 271.53125 470.800781 275.03125 467.738281 C 300.839844 447.613281 321.402344 430.988281 376.085938 375.867188 C 428.582031 323.371094 446.957031 301.933594 467.957031 274.8125 C 470.582031 271.3125 472.769531 267.375 473.644531 263.4375 C 474.519531 261.25 474.519531 259.0625 474.519531 256.875 C 474.519531 256.4375 474.519531 256.4375 474.519531 256 C 474.519531 255.5625 474.519531 255.5625 474.519531 255.125 C 474.519531 252.9375 474.082031 250.75 473.644531 248.5625 C 472.332031 244.625 470.582031 240.6875 467.957031 237.1875 C 447.394531 210.066406 428.582031 188.628906 376.085938 136.132812 C 321.402344 81.011719 300.839844 63.949219 275.03125 44.261719 C 271.53125 41.636719 267.15625 39.449219 263.21875 38.136719 C 261.90625 37.699219 260.59375 37.699219 259.28125 37.261719 C 258.84375 37.261719 258.40625 37.261719 257.53125 37.261719 C 257.09375 37.261719 256.21875 37.261719 255.78125 37.261719 C 253.59375 37.261719 250.96875 37.699219 248.78125 38.574219 C 244.84375 39.886719 240.90625 41.636719 237.40625 44.261719 C 210.285156 64.824219 188.847656 83.636719 136.351562 136.132812 C 81.230469 191.253906 64.605469 211.378906 44.480469 237.1875 C 41.855469 240.6875 39.667969 245.0625 38.355469 249 C 37.917969 251.1875 37.480469 253.375 37.480469 255.125 C 37.480469 255.5625 37.480469 255.5625 37.480469 256 C 37.480469 256.4375 37.480469 256.4375 37.480469 256.875 C 37.480469 259.0625 37.917969 261.25 38.355469 263 C 39.667969 267.375 41.855469 271.3125 44.480469 274.8125 Z M 44.480469 274.8125 "/>
<path style=" stroke:none;fill-rule:nonzero;fill:rgb(18.431373%,18.431373%,18.431373%);fill-opacity:1;" d="M 50.167969 274.375 C 69.417969 299.308594 86.042969 319.433594 139.414062 372.804688 C 190.597656 423.988281 211.597656 441.925781 237.84375 462.050781 C 241.34375 464.675781 245.28125 466.425781 248.78125 467.738281 C 250.96875 468.613281 253.15625 468.613281 255.78125 468.613281 C 256.21875 468.613281 256.65625 468.613281 257.53125 468.613281 C 257.96875 468.613281 258.40625 468.613281 259.28125 468.613281 C 260.59375 468.613281 261.90625 468.175781 263.21875 467.738281 C 267.15625 466.863281 271.09375 464.675781 274.59375 462.050781 C 299.527344 442.800781 319.652344 426.175781 373.023438 372.804688 C 424.207031 321.621094 442.144531 300.621094 462.269531 274.375 C 464.894531 270.875 467.082031 266.9375 467.957031 263 C 468.394531 260.8125 468.832031 258.625 468.832031 256.4375 C 468.832031 256 468.832031 256 468.832031 255.5625 C 468.832031 255.125 468.832031 255.125 468.832031 254.6875 C 468.832031 252.5 468.394531 250.3125 467.957031 248.125 C 466.644531 244.1875 464.894531 240.25 462.269531 236.75 C 442.144531 210.503906 424.207031 189.503906 373.023438 138.320312 C 319.652344 85.824219 299.527344 69.636719 274.59375 49.949219 C 271.09375 47.324219 267.15625 45.136719 263.21875 44.261719 C 261.90625 43.824219 260.59375 43.824219 259.28125 43.386719 C 258.84375 43.386719 258.40625 43.386719 257.53125 43.386719 C 257.09375 43.386719 256.65625 43.386719 255.78125 43.386719 C 253.59375 43.386719 250.96875 43.824219 248.78125 44.261719 C 244.84375 45.574219 240.90625 47.324219 237.84375 49.949219 C 211.597656 70.074219 190.597656 88.011719 139.414062 139.195312 C 86.042969 192.566406 69.417969 212.691406 50.167969 237.625 C 47.542969 241.125 45.355469 245.0625 44.480469 249 C 44.042969 251.1875 43.605469 252.9375 43.605469 255.125 C 43.605469 255.5625 43.605469 255.5625 43.605469 256 C 43.605469 256.4375 43.605469 256.4375 43.605469 256.875 C 43.605469 259.0625 44.042969 260.8125 44.480469 263 C 45.792969 266.9375 47.542969 270.875 50.167969 274.375 Z M 50.167969 274.375 "/>
<path style=" stroke:none;fill-rule:nonzero;fill:rgb(11.372549%,11.372549%,9.411765%);fill-opacity:1;" d="M 132.414062 266.9375 C 144.226562 281.8125 153.851562 294.058594 186.222656 325.996094 C 216.847656 356.617188 229.53125 367.554688 245.28125 379.804688 C 247.46875 381.554688 249.65625 382.429688 251.84375 383.304688 C 253.15625 383.742188 254.46875 383.742188 255.78125 383.742188 C 256.21875 383.742188 256.21875 383.742188 256.65625 383.742188 C 257.09375 383.742188 257.09375 383.742188 257.53125 383.742188 C 258.40625 383.742188 259.28125 383.304688 260.15625 383.304688 C 262.78125 382.867188 264.96875 381.554688 267.15625 379.804688 C 282.03125 367.992188 294.277344 358.367188 326.214844 325.996094 C 356.835938 295.371094 367.773438 282.6875 380.023438 266.9375 C 381.773438 264.75 382.648438 262.5625 383.523438 260.375 C 383.960938 259.0625 383.960938 257.75 383.960938 256.4375 L 383.960938 255.5625 C 383.960938 254.25 383.523438 252.9375 383.523438 251.625 C 382.648438 249.4375 381.773438 246.8125 380.023438 245.0625 C 367.773438 229.3125 357.273438 216.628906 326.214844 186.003906 C 294.277344 154.070312 282.03125 144.007812 267.15625 132.195312 C 264.96875 130.445312 262.78125 129.570312 260.15625 128.695312 C 259.28125 128.257812 258.40625 128.257812 257.53125 128.257812 C 257.09375 128.257812 257.09375 128.257812 256.65625 128.257812 C 256.21875 128.257812 256.21875 128.257812 255.78125 128.257812 C 254.46875 128.257812 253.15625 128.695312 251.84375 128.695312 C 249.65625 129.570312 247.03125 130.445312 245.28125 132.195312 C 229.53125 144.445312 216.847656 154.945312 186.222656 186.003906 C 154.289062 217.941406 144.226562 230.1875 132.414062 245.0625 C 130.664062 247.25 129.789062 249.4375 128.914062 252.0625 C 128.476562 253.375 128.476562 254.6875 128.476562 255.5625 L 128.476562 256.4375 C 128.476562 257.75 128.914062 259.0625 128.914062 259.9375 C 129.351562 262.5625 130.664062 265.1875 132.414062 266.9375 Z M 132.414062 266.9375 "/>
<path style=" stroke:none;fill-rule:nonzero;fill:rgb(34.901961%,34.901961%,34.901961%);fill-opacity:1;" d="M 244.570312 386.800781 C 237.570312 382.429688 170.636719 320.746094 141.761719 285.746094 C 120.765625 260.371094 115.953125 258.621094 104.578125 258.183594 C 73.515625 257.75 45.519531 252.9375 51.207031 263.871094 C 56.894531 273.933594 112.890625 336.054688 146.574219 369.742188 C 180.261719 403.425781 235.820312 452.859375 246.320312 459.421875 C 256.820312 465.984375 254.632812 453.734375 254.632812 445.425781 C 253.320312 422.675781 252.445312 392.050781 244.570312 386.800781 Z M 244.570312 386.800781 "/>
<path style=" stroke:none;fill-rule:nonzero;fill:rgb(4.705882%,4.705882%,2.352941%);fill-opacity:1;" d="M 387.316406 243.640625 C 382.941406 237.078125 321.257812 169.707031 286.261719 140.832031 C 260.886719 119.835938 259.136719 115.023438 258.699219 103.648438 C 258.261719 72.589844 253.886719 44.589844 264.386719 50.714844 C 274.449219 56.402344 336.570312 112.398438 370.257812 146.082031 C 403.941406 179.769531 453.375 235.328125 459.9375 245.828125 C 466.5 256.328125 454.25 254.140625 445.9375 254.140625 C 423.191406 252.828125 392.566406 251.515625 387.316406 243.640625 Z M 387.316406 243.640625 "/>
</g>
</svg>
