<?xml version="1.0" encoding="UTF-8"?>
<svg xmlns="http://www.w3.org/2000/svg" xmlns:xlink="http://www.w3.org/1999/xlink" width="511pt" height="409pt" viewBox="0 0 511 409" version="1.1">
<g id="surface1">
<rect x="0" y="0" width="511" height="409" style="fill:rgb(92.156863%,92.156863%,92.156863%);fill-opacity:1;stroke:none;"/>
<path style=" stroke:none;fill-rule:nonzero;fill:rgb(85.882353%,83.921569%,81.960784%);fill-opacity:1;" d="M 342.230469 204.550781 C 342.230469 252.484375 303.398438 291.34375 255.5 291.34375 C 207.601562 291.34375 168.769531 252.484375 168.769531 204.550781 C 168.769531 156.613281 207.601562 117.753906 255.5 117.753906 C 303.398438 117.753906 342.230469 156.613281 342.230469 204.550781 Z M 342.230469 204.550781 "/>
<path style=" stroke:none;fill-rule:nonzero;fill:rgb(91.764706%,90.196078%,88.627451%);fill-opacity:1;" d="M 319.175781 203.664062 C 319.175781 238.855469 290.667969 267.382812 255.5 267.382812 C 220.332031 267.382812 191.824219 238.855469 191.824219 203.664062 C 191.824219 168.46875 220.332031 139.941406 255.5 139.941406 C 290.667969 139.941406 319.175781 168.46875 319.175781 203.664062 Z M 319.175781 203.664062 "/>
<path style=" stroke:none;fill-rule:nonzero;fill:rgb(75.294118%,75.294118%,75.294118%);fill-opacity:1;" d="M 365.410156 218.570312 L 366.171875 240.269531 C 367.527344 246.207031 368.898438 252.273438 369.96875 257.144531 C 370.132812 258.082031 370.242188 259.085938 370.242188 260.148438 C 370.242188 266.21875 365.949219 270.976562 360.664062 270.976562 C 355.324219 270.976562 351.140625 266.09375 351.140625 260.148438 C 351.140625 259.023438 351.523438 257.144531 351.523438 257.144531 L 355.296875 240.519531 L 356.023438 219.742188 C 347.382812 204.5625 350.207031 166.144531 364.488281 166.144531 C 370.996094 166.144531 367.316406 202.683594 365.410156 218.570312 Z M 365.410156 218.570312 "/>
<path style=" stroke:none;fill-rule:nonzero;fill:rgb(75.294118%,75.294118%,75.294118%);fill-opacity:1;" d="M 132.605469 216.789062 L 131.8125 239.542969 C 130.421875 245.625 129.019531 251.828125 127.921875 256.816406 C 127.753906 257.777344 127.640625 258.804688 127.640625 259.894531 C 127.640625 266.109375 132.035156 270.976562 137.445312 270.976562 C 142.914062 270.976562 147.195312 265.980469 147.195312 259.894531 C 147.195312 258.738281 146.800781 256.816406 146.800781 256.816406 L 142.9375 239.800781 L 142.136719 216.828125 C 149.492188 214.929688 155.109375 208.679688 156.070312 200.984375 C 156.164062 200.65625 156.214844 200.308594 156.214844 199.949219 L 156.214844 169.898438 C 156.214844 167.832031 154.527344 166.144531 152.460938 166.144531 C 150.398438 166.144531 148.707031 167.832031 148.707031 169.898438 L 148.707031 198.636719 C 148.707031 204.871094 143.679688 209.90625 137.445312 209.90625 C 131.214844 209.90625 126.1875 204.871094 126.1875 198.636719 L 126.1875 169.898438 C 126.1875 167.832031 124.496094 166.144531 122.433594 166.144531 C 120.367188 166.144531 118.679688 167.832031 118.679688 169.898438 L 118.679688 199.949219 C 118.679688 200.308594 118.730469 200.65625 118.824219 200.984375 C 119.777344 208.625 125.324219 214.84375 132.605469 216.789062 Z M 141.199219 199.949219 L 141.199219 169.898438 C 141.199219 167.832031 139.511719 166.144531 137.445312 166.144531 C 135.382812 166.144531 133.691406 167.832031 133.691406 169.898438 L 133.691406 199.949219 C 133.691406 202.015625 135.382812 203.707031 137.445312 203.707031 C 139.511719 203.707031 141.199219 202.015625 141.199219 199.949219 Z M 141.199219 199.949219 "/>
</g>
</svg>
